# xmcd
#
# Track frame offsets:
#	150
#	11275
#	21287
#	31305
#	40905
#	52625
#	65737
#	76777
#	87355
#	100022
#	110425
#	121122
#	133352
#	143312
#	152765
#	163565
#	173265
#	184197
#	193775
#	204517
#	215855
#	225775
#	235970
#	247937
#	258525
#	268515
#	278687
#	291392
#	300787
#	310610
#	320305
#
# Disc length: 4410 seconds
#
# Revision: 2
# Processed by: cddbd v1.5.1PL2 Copyright (c) Steve Scherf et al.
# Submitted via: dBpowerAMP V4.0
#
DISCID=9011381f
DTITLE=Jean Shepard - The Melody Ranch Girl, Disc 3
DYEAR=1900
DGENRE=country
TTITLE0=The Weak and The Strong
TTITLE1=You'd Better Go
TTITLE2=A Thief In The Night
TTITLE3=Memory
TTITLE4=I Love You Because
TTITLE5=You Win Again
TTITLE6=You Can't Break The Chains of Love
TTITLE7=Secret of Life
TTITLE8=Jealous Heart
TTITLE9=Sweet Temptation
TTITLE10=I'll Take The Blame
TTITLE11=I'll Never Be Free
TTITLE12=I'll Hold You in My Heart
TTITLE13=I Hate Myself
TTITLE14=You're Telling Me Sweet Lies Again
TTITLE15=He's My Baby
TTITLE16=Just Another Girl
TTITLE17=Jeopardy
TTITLE18=Are You Certain?
TTITLE19=Better Love Next Time
TTITLE20=Have Heart, Will Love
TTITLE21=Heartaches, Teardrops and Sorrow
TTITLE22=I Didn't Mean To Make You Cry
TTITLE23=Sweetheart Don't Come Back
TTITLE24=How Do I Tell It To a Child
TTITLE25=The One You Slip Around With
TTITLE26=The Mysteries of Life
TTITLE27=Did I Turn Down a Better Deal
TTITLE28=The Root of All Evil (Is a Man)
TTITLE29=I'd Like To Know (Where People Go)
TTITLE30=Lonely Little World
EXTD=
EXTT0=
EXTT1=
EXTT2=
EXTT3=
EXTT4=
EXTT5=
EXTT6=
EXTT7=
EXTT8=
EXTT9=
EXTT10=
EXTT11=
EXTT12=
EXTT13=
EXTT14=
EXTT15=
EXTT16=
EXTT17=
EXTT18=
EXTT19=
EXTT20=
EXTT21=
EXTT22=
EXTT23=
EXTT24=
EXTT25=
EXTT26=
EXTT27=
EXTT28=
EXTT29=
EXTT30=
PLAYORDER=
